<svg width="28" height="29" viewBox="0 0 28 29" fill="none" xmlns="http://www.w3.org/2000/svg">
<g id="Apple---Negative 1" clip-path="url(#clip0_1946_14942)">
<g id="Group">
<g id="Group_2">
<path id="Vector" d="M25.4242 22.0659C25.0158 23.0169 24.5115 23.9238 23.9192 24.7725C23.127 25.9013 22.4789 26.6824 21.9796 27.1164C21.2055 27.828 20.3754 28.1932 19.487 28.2136C18.8494 28.2136 18.0806 28.0322 17.1852 27.6641C16.2868 27.2978 15.4614 27.1158 14.7066 27.1158C13.915 27.1158 13.0662 27.2978 12.158 27.6641C11.2486 28.0322 10.5159 28.2241 9.95591 28.2428C9.10425 28.2795 8.25491 27.9044 7.40675 27.1164C6.866 26.6439 6.18991 25.8354 5.37908 24.6897C4.50933 23.4659 3.79416 22.0472 3.23416 20.429C2.6345 18.682 2.3335 16.9897 2.3335 15.3517C2.3335 13.4751 2.73891 11.8569 3.55091 10.5007C4.18966 9.41103 5.03841 8.55237 6.10125 7.9212C7.14394 7.29723 8.33368 6.96145 9.54875 6.9482C10.2254 6.9482 11.1127 7.15762 12.2157 7.56887C13.3153 7.98128 14.0212 8.1907 14.3309 8.1907C14.5619 8.1907 15.3465 7.9457 16.6759 7.45803C17.9336 7.00537 18.9947 6.81812 19.8638 6.8922C22.2199 7.08237 23.9897 8.01103 25.1663 9.68403C23.0599 10.9604 22.0175 12.7483 22.0385 15.0419C22.0572 16.8287 22.7052 18.3156 23.9792 19.4957C24.5567 20.044 25.2013 20.4675 25.9182 20.768C25.7679 21.2059 25.6032 21.6388 25.4242 22.0659ZM20.0213 0.805701C20.0213 2.2057 19.5097 3.51353 18.4901 4.72337C17.2592 6.16245 15.7712 6.9937 14.1571 6.86245C14.1354 6.68634 14.1245 6.50906 14.1244 6.33162C14.1244 4.98762 14.7095 3.54912 15.749 2.37253C16.2682 1.77695 16.9273 1.2817 17.7277 0.886784C18.5268 0.497701 19.2817 0.282451 19.9922 0.245117C20.0126 0.432367 20.0213 0.619617 20.0213 0.805117V0.805701Z" fill="white"/>
</g>
</g>
</g>
<defs>
<clipPath id="clip0_1946_14942">
<rect width="28" height="28" fill="white" transform="translate(0 0.245117)"/>
</clipPath>
</defs>
</svg>
