<svg width="33" height="15" viewBox="0 0 33 15" fill="none" xmlns="http://www.w3.org/2000/svg">
<path id="ApplePay" fill-rule="evenodd" clip-rule="evenodd" d="M6.50628 2.04236C6.12856 2.5081 5.52423 2.87545 4.91989 2.82298C4.84435 2.19323 5.14022 1.52413 5.48645 1.11086C5.86417 0.631998 6.52516 0.290888 7.06025 0.264648C7.12321 0.92063 6.87769 1.56349 6.50628 2.04236ZM7.05445 2.94743C6.52204 2.9155 6.03624 3.11428 5.64384 3.27483C5.39133 3.37816 5.17749 3.46565 5.01481 3.46565C4.83225 3.46565 4.60959 3.37348 4.35958 3.26999C4.032 3.13438 3.65749 2.97935 3.26475 2.98679C2.36453 2.99991 1.52727 3.53125 1.06773 4.37747C0.123447 6.0699 0.822213 8.57574 1.73502 9.9533C2.18197 10.6355 2.71707 11.3833 3.42213 11.3571C3.73231 11.3449 3.95544 11.2462 4.18636 11.1441C4.45221 11.0266 4.72838 10.9045 5.1596 10.9045C5.57587 10.9045 5.83997 11.0234 6.09348 11.1376C6.33453 11.2461 6.56602 11.3504 6.90966 11.344C7.6399 11.3309 8.09945 10.6618 8.54641 9.97954C9.02875 9.24734 9.24072 8.53274 9.27288 8.42429L9.27665 8.41175C9.27588 8.41094 9.26992 8.4081 9.25941 8.40309C9.09817 8.32617 7.86576 7.73825 7.85394 6.16173C7.84207 4.83847 8.83146 4.16803 8.9872 4.06249C8.99668 4.05607 9.00307 4.05173 9.00596 4.04948C8.37644 3.07863 7.39439 2.97367 7.05445 2.94743ZM12.1099 11.2721V1.04532H15.7926C17.6937 1.04532 19.022 2.40976 19.022 4.40394C19.022 6.39813 17.6685 7.77569 15.7422 7.77569H13.6333V11.2721H12.1099ZM13.6324 2.38372H15.3888C16.7108 2.38372 17.4662 3.11842 17.4662 4.4107C17.4662 5.70298 16.7108 6.44424 15.3825 6.44424H13.6324V2.38372ZM24.0518 10.0453C23.6489 10.8456 22.7612 11.3507 21.8044 11.3507C20.388 11.3507 19.3996 10.4717 19.3996 9.14658C19.3996 7.83462 20.3565 7.08024 22.1254 6.96873L24.0266 6.85065V6.28651C24.0266 5.45341 23.5041 5.00079 22.5724 5.00079C21.8044 5.00079 21.2441 5.41405 21.1308 6.04379H19.7584C19.8025 4.71871 20.9986 3.75442 22.6165 3.75442C24.3602 3.75442 25.4934 4.70559 25.4934 6.18155V11.272H24.0832V10.0453H24.0518ZM22.213 10.1374C21.4009 10.1374 20.8847 9.73069 20.8847 9.1075C20.8847 8.46464 21.382 8.09073 22.3326 8.0317L24.026 7.92018V8.49744C24.026 9.45517 23.2454 10.1374 22.213 10.1374ZM30.1701 11.6719C29.5594 13.4628 28.8607 14.0532 27.375 14.0532C27.2617 14.0532 26.884 14.04 26.7958 14.0138V12.7871C26.8903 12.8002 27.1232 12.8133 27.2428 12.8133C27.9164 12.8133 28.2941 12.5182 28.527 11.7507L28.6655 11.298L26.0845 3.85265H27.6772L29.4713 9.89424H29.5028L31.2969 3.85265H32.8455L30.1701 11.6719Z" fill="white"/>
</svg>
