<svg width="31" height="19" viewBox="0 0 31 19" fill="none" xmlns="http://www.w3.org/2000/svg">
<g id="Mastercard">
<path id="Left" fill-rule="evenodd" clip-rule="evenodd" d="M21.5585 18.392C26.515 18.392 30.533 14.4219 30.533 9.52438C30.533 4.62692 26.515 0.656738 21.5585 0.656738C19.3371 0.656738 17.3042 1.45422 15.7371 2.77525C14.17 1.45432 12.1372 0.656897 9.91585 0.656897C4.9594 0.656897 0.941406 4.62708 0.941406 9.52454C0.941406 14.422 4.9594 18.3922 9.91585 18.3922C12.1372 18.3922 14.1701 17.5947 15.7373 16.2737C17.3044 17.5946 19.3372 18.392 21.5585 18.392Z" fill="#ED0006"/>
<path id="Right" fill-rule="evenodd" clip-rule="evenodd" d="M15.7368 16.274C17.6667 14.6476 18.8904 12.2272 18.8904 9.52438C18.8904 6.82159 17.6667 4.40122 15.7368 2.77473C17.3039 1.45401 19.3365 0.656738 21.5576 0.656738C26.5141 0.656738 30.5321 4.62692 30.5321 9.52438C30.5321 14.4219 26.5141 18.392 21.5576 18.392C19.3365 18.392 17.3039 17.5948 15.7368 16.274Z" fill="#F9A000"/>
<path id="Middle" fill-rule="evenodd" clip-rule="evenodd" d="M15.737 16.2736C17.6665 14.6471 18.8899 12.227 18.8899 9.5245C18.8899 6.82201 17.6665 4.40188 15.737 2.77539C13.8075 4.40188 12.584 6.82201 12.584 9.5245C12.584 12.227 13.8075 14.6471 15.737 16.2736Z" fill="#FF5E00"/>
</g>
</svg>
