<svg width="32" height="12" viewBox="0 0 32 12" fill="none" xmlns="http://www.w3.org/2000/svg">
<path id="visa-logo" fill-rule="evenodd" clip-rule="evenodd" d="M8.22836 10.9889H5.50223L3.45797 2.96049C3.36094 2.59119 3.15492 2.2647 2.85187 2.11082C2.09557 1.72412 1.26218 1.41637 0.353027 1.26115V0.952062H4.74461C5.35071 0.952062 5.80528 1.41637 5.88104 1.95561L6.94172 7.74673L9.66652 0.952062H12.3169L8.22836 10.9889ZM13.8325 10.9889H11.2579L13.378 0.952062H15.9526L13.8325 10.9889ZM19.2828 3.73268C19.3586 3.1921 19.8132 2.88301 20.3435 2.88301C21.1769 2.8054 22.0847 2.96062 22.8424 3.34598L23.2969 1.18501C22.5393 0.875918 21.7059 0.720703 20.9496 0.720703C18.4508 0.720703 16.6325 2.11095 16.6325 4.04043C16.6325 5.50828 17.9204 6.27901 18.8296 6.74331C19.8132 7.20628 20.192 7.51537 20.1162 7.97834C20.1162 8.6728 19.3586 8.98189 18.6023 8.98189C17.6931 8.98189 16.784 8.7504 15.9519 8.3637L15.4974 10.526C16.4065 10.9114 17.3901 11.0666 18.2992 11.0666C21.1011 11.1429 22.8424 9.75395 22.8424 7.66925C22.8424 5.04398 19.2828 4.8901 19.2828 3.73268ZM31.8526 10.9889L29.8084 0.952062H27.6126C27.158 0.952062 26.7034 1.26115 26.5519 1.72412L22.7664 10.9889H25.4168L25.9458 9.52234H29.2023L29.5053 10.9889H31.8526ZM27.9922 3.65534L28.7485 7.43804H26.6284L27.9922 3.65534Z" fill="white"/>
</svg>
